# xmcd
#
# Track frame offsets: 
#        150
#        27625
#        44085
#        58005
#        84340
#        99065
#        124221
#        145575
#        168885
#        184060
#
# Disc length: 2906 seconds
#
# Revision: 1
# Processed by: cddbd v1.5.2PL0 Copyright (c) Steve Scherf et al.
# Submitted via: ExactAudioCopyFreeDBPlugin 1.0
#
DISCID=800b580a
DTITLE=Deanna Bogart Band - Timing Is Everything
DYEAR=2002
DGENRE=Blues
TTITLE0=Still the Girl In the Band
TTITLE1=People can Be Just Plain Wrong
TTITLE2=Soulache
TTITLE3=Shadows On The Bedroom Wall
TTITLE4=(I'd Rather Be Sad) in Las Vegas
TTITLE5=I'll Be Missing You
TTITLE6=Timing Is Everything
TTITLE7=When I Get Over You
TTITLE8=Slip Away
TTITLE9=Don't Forget To Remember
EXTD=YEAR: 2002
EXTT0=
EXTT1=
EXTT2=
EXTT3=
EXTT4=
EXTT5=
EXTT6=
EXTT7=
EXTT8=
EXTT9=
PLAYORDER=
